<svg width="168" height="35" viewBox="0 0 168 35" fill="none" xmlns="http://www.w3.org/2000/svg">
<path d="M55.6367 15.0516V0.231239H58.9372V15.0516H55.6367Z" fill="#FFFEFF"/>
<path d="M63.0447 15.0516V0.231239H65.7915L71.2213 9.98534H70.4974L75.9059 0.231239H78.6101V15.0516H75.6078V5.2134H76.0762L71.7324 12.8233H69.8798L65.5147 5.19238H66.0257V15.0516H63.0447Z" fill="#FFFEFF"/>
<path d="M80.888 15.0516L87.1696 6.81106V8.26156L81.0584 0.231239H84.8912L89.0434 5.8861H87.9787L92.1097 0.231239H95.9638L89.8313 8.26156V6.81106L96.1128 15.0516H92.2587L87.9574 9.18652H89.0434L84.7634 15.0516H80.888Z" fill="#FFFEFF"/>
<path d="M103.627 15.0516L110.526 0.231239H113.188L120.087 15.0516H116.765L114.976 10.9313L116.297 11.8353H107.417L108.737 10.9313L106.97 15.0516H103.627ZM111.825 3.69983L109.099 10.1115L108.525 9.29163H115.189L114.614 10.1115L111.868 3.69983H111.825Z" fill="#FFFEFF"/>
<path d="M128.776 15.2828C126.646 15.2828 125.021 14.7433 123.899 13.6642C122.792 12.585 122.238 10.9804 122.238 8.85017V0.231239H125.539V8.87119C125.539 10.0764 125.816 10.9874 126.369 11.604C126.923 12.2066 127.725 12.508 128.776 12.508C129.826 12.508 130.621 12.2066 131.16 11.604C131.714 10.9874 131.991 10.0764 131.991 8.87119V0.231239H135.249V8.85017C135.249 10.9804 134.702 12.585 133.609 13.6642C132.516 14.7433 130.905 15.2828 128.776 15.2828Z" fill="#FFFEFF"/>
<path d="M142.811 15.0516V2.92203H137.85V0.231239H151.073V2.92203H146.112V15.0516H142.811Z" fill="#FFFEFF"/>
<path d="M159.822 15.2828C158.714 15.2828 157.699 15.1006 156.777 14.7363C155.868 14.3719 155.087 13.8534 154.434 13.1807C153.781 12.508 153.277 11.7021 152.922 10.7632C152.582 9.82418 152.411 8.7801 152.411 7.6309C152.411 6.4677 152.582 5.42362 152.922 4.49866C153.277 3.55969 153.781 2.76086 154.434 2.10218C155.087 1.42948 155.868 0.910943 156.777 0.546565C157.699 0.182188 158.714 0 159.822 0C160.943 0 161.958 0.182188 162.866 0.546565C163.775 0.910943 164.556 1.42247 165.209 2.08116C165.862 2.73984 166.366 3.53867 166.721 4.47764C167.075 5.41661 167.253 6.46069 167.253 7.60988C167.253 8.77309 167.075 9.82418 166.721 10.7632C166.366 11.7021 165.862 12.508 165.209 13.1807C164.556 13.8534 163.775 14.3719 162.866 14.7363C161.958 15.1006 160.943 15.2828 159.822 15.2828ZM159.822 12.508C160.673 12.508 161.39 12.3188 161.972 11.9404C162.554 11.548 163.001 10.9874 163.314 10.2586C163.64 9.51586 163.803 8.63995 163.803 7.6309C163.803 6.60784 163.647 5.73194 163.335 5.00318C163.023 4.27443 162.568 3.72085 161.972 3.34246C161.376 2.96407 160.659 2.77487 159.822 2.77487C158.998 2.77487 158.288 2.96407 157.692 3.34246C157.096 3.72085 156.642 4.27443 156.329 5.00318C156.017 5.73194 155.861 6.60784 155.861 7.6309C155.861 8.63995 156.017 9.51586 156.329 10.2586C156.642 10.9874 157.096 11.548 157.692 11.9404C158.288 12.3188 158.998 12.508 159.822 12.508Z" fill="#FFFEFF"/>
<path d="M66.2832 29.7629V24.2974H68.8408C69.4374 24.2974 69.8966 24.4241 70.2187 24.6773C70.5459 24.9306 70.7096 25.2768 70.7096 25.7161C70.7096 26.0417 70.6146 26.3182 70.4245 26.5457C70.2345 26.7731 69.9732 26.9255 69.6406 27.003V26.879C69.8993 26.9204 70.1184 27.0005 70.2978 27.1193C70.4773 27.2382 70.6146 27.3907 70.7096 27.5767C70.8099 27.7628 70.86 27.9773 70.86 28.2202C70.86 28.5406 70.7809 28.8171 70.6225 29.0497C70.4694 29.2823 70.2477 29.4606 69.9573 29.5846C69.6723 29.7035 69.3292 29.7629 68.928 29.7629H66.2832ZM67.4551 28.8714H68.7617C68.8884 28.8714 69.0019 28.8611 69.1022 28.8404C69.2025 28.8197 69.2869 28.7913 69.3555 28.7551C69.4294 28.7189 69.4902 28.6724 69.5377 28.6156C69.5852 28.5535 69.6195 28.4838 69.6406 28.4062C69.667 28.3287 69.6802 28.2434 69.6802 28.1504C69.6802 28.0522 69.667 27.9669 69.6406 27.8946C69.6195 27.8171 69.5852 27.7499 69.5377 27.693C69.4902 27.6362 69.4294 27.5897 69.3555 27.5535C69.2869 27.5121 69.2025 27.4837 69.1022 27.4682C69.0019 27.4475 68.8884 27.4372 68.7617 27.4372H67.4551V28.8714ZM67.4551 26.5457H68.6271C68.9332 26.5457 69.1602 26.4888 69.308 26.3751C69.4558 26.2614 69.5298 26.0908 69.5298 25.8634C69.5298 25.6412 69.4558 25.4732 69.308 25.3595C69.1602 25.2458 68.9332 25.189 68.6271 25.189H67.4551V26.5457Z" fill="#00CED8"/>
<path d="M76.4767 29.8482C75.8749 29.8482 75.3602 29.7319 74.9326 29.4993C74.505 29.2668 74.175 28.9412 73.9428 28.5225C73.7158 28.0987 73.6023 27.6 73.6023 27.0263C73.6023 26.4526 73.7158 25.9565 73.9428 25.5378C74.175 25.1192 74.505 24.7936 74.9326 24.561C75.3602 24.3284 75.8749 24.2122 76.4767 24.2122C76.8462 24.2122 77.1999 24.269 77.5377 24.3827C77.8756 24.4964 78.1527 24.6515 78.3692 24.8479L77.9891 25.8014C77.7515 25.6205 77.5113 25.4887 77.2685 25.406C77.031 25.3182 76.7802 25.2742 76.5163 25.2742C75.9884 25.2742 75.5872 25.4267 75.3127 25.7316C75.0382 26.0314 74.9009 26.463 74.9009 27.0263C74.9009 27.5897 75.0382 28.0238 75.3127 28.3287C75.5872 28.6337 75.9884 28.7861 76.5163 28.7861C76.7802 28.7861 77.031 28.7448 77.2685 28.6621C77.5113 28.5742 77.7515 28.4398 77.9891 28.2589L78.3692 29.2125C78.1527 29.4089 77.8756 29.5639 77.5377 29.6776C77.1999 29.7914 76.8462 29.8482 76.4767 29.8482Z" fill="#00CED8"/>
<path d="M81.1534 29.7629V24.2974H84.978V25.2355H82.3253V26.5146H84.8038V27.4604H82.3253V28.8249H84.978V29.7629H81.1534Z" fill="#00CED8"/>
<path d="M91.6436 31.0808V28.8171H92.2058C92.3642 28.6207 92.4962 28.3778 92.6018 28.0884C92.7073 27.799 92.7839 27.4579 92.8314 27.0651C92.8842 26.6723 92.9106 26.2304 92.9106 25.7394V24.2974H97.0044V28.8171H97.7962V31.0808H96.7193V29.7629H92.7285V31.0808H91.6436ZM93.4411 28.8171H95.7691V25.2355H94.0429V25.8557C94.0429 26.3157 94.0218 26.7291 93.9796 27.0961C93.9373 27.463 93.8713 27.7886 93.7816 28.0729C93.6919 28.3571 93.5784 28.6052 93.4411 28.8171Z" fill="#00CED8"/>
<path d="M100.659 29.9025L100.041 29.0264C100.253 28.9076 100.437 28.768 100.596 28.6078C100.754 28.4476 100.886 28.2512 100.992 28.0186C101.097 27.7809 101.174 27.4966 101.221 27.1658C101.274 26.8299 101.3 26.4319 101.3 25.972V24.2974H105.394V29.7629H104.159V25.2898H102.433V26.2821C102.433 26.7782 102.393 27.2201 102.314 27.6077C102.235 27.9954 102.119 28.3365 101.966 28.6311C101.813 28.9257 101.625 29.1789 101.403 29.3908C101.182 29.5975 100.934 29.7681 100.659 29.9025Z" fill="#00CED8"/>
<path d="M108.125 29.7629L109.027 28.1427C109.149 27.9256 109.294 27.7654 109.463 27.662C109.632 27.5535 109.824 27.4992 110.041 27.4992H110.342L110.35 27.631C109.938 27.631 109.584 27.5638 109.289 27.4294C108.998 27.2951 108.777 27.1038 108.624 26.8558C108.476 26.6077 108.402 26.3131 108.402 25.972C108.402 25.4448 108.571 25.0339 108.909 24.7393C109.246 24.4447 109.727 24.2974 110.35 24.2974H112.907V29.7629H111.672V27.6465H111.15C111.044 27.6465 110.949 27.6594 110.864 27.6853C110.78 27.7059 110.703 27.7447 110.635 27.8016C110.566 27.8532 110.505 27.9256 110.453 28.0186L109.479 29.7629H108.125ZM110.564 26.7782H111.672V25.2355H110.564C110.242 25.2355 109.996 25.3001 109.827 25.4293C109.663 25.5585 109.582 25.7497 109.582 26.003C109.582 26.2614 109.663 26.4552 109.827 26.5844C109.996 26.7136 110.242 26.7782 110.564 26.7782Z" fill="#00CED8"/>
<path d="M122.897 29.8482C122.295 29.8482 121.78 29.7319 121.353 29.4993C120.925 29.2668 120.595 28.9412 120.363 28.5225C120.136 28.0987 120.022 27.6 120.022 27.0263C120.022 26.4526 120.136 25.9565 120.363 25.5378C120.595 25.1192 120.925 24.7936 121.353 24.561C121.78 24.3284 122.295 24.2122 122.897 24.2122C123.266 24.2122 123.62 24.269 123.958 24.3827C124.296 24.4964 124.573 24.6515 124.789 24.8479L124.409 25.8014C124.172 25.6205 123.931 25.4887 123.689 25.406C123.451 25.3182 123.2 25.2742 122.936 25.2742C122.408 25.2742 122.007 25.4267 121.733 25.7316C121.458 26.0314 121.321 26.463 121.321 27.0263C121.321 27.5897 121.458 28.0238 121.733 28.3287C122.007 28.6337 122.408 28.7861 122.936 28.7861C123.2 28.7861 123.451 28.7448 123.689 28.6621C123.931 28.5742 124.172 28.4398 124.409 28.2589L124.789 29.2125C124.573 29.4089 124.296 29.5639 123.958 29.6776C123.62 29.7914 123.266 29.8482 122.897 29.8482Z" fill="#00CED8"/>
<path d="M127.574 29.7629V24.2974H130.131C130.728 24.2974 131.187 24.4241 131.509 24.6773C131.836 24.9306 132 25.2768 132 25.7161C132 26.0417 131.905 26.3182 131.715 26.5457C131.525 26.7731 131.263 26.9255 130.931 27.003V26.879C131.19 26.9204 131.409 27.0005 131.588 27.1193C131.768 27.2382 131.905 27.3907 132 27.5767C132.1 27.7628 132.15 27.9773 132.15 28.2202C132.15 28.5406 132.071 28.8171 131.913 29.0497C131.76 29.2823 131.538 29.4606 131.248 29.5846C130.963 29.7035 130.619 29.7629 130.218 29.7629H127.574ZM128.745 28.8714H130.052C130.179 28.8714 130.292 28.8611 130.392 28.8404C130.493 28.8197 130.577 28.7913 130.646 28.7551C130.72 28.7189 130.78 28.6724 130.828 28.6156C130.875 28.5535 130.91 28.4838 130.931 28.4062C130.957 28.3287 130.971 28.2434 130.971 28.1504C130.971 28.0522 130.957 27.9669 130.931 27.8946C130.91 27.8171 130.875 27.7499 130.828 27.693C130.78 27.6362 130.72 27.5897 130.646 27.5535C130.577 27.5121 130.493 27.4837 130.392 27.4682C130.292 27.4475 130.179 27.4372 130.052 27.4372H128.745V28.8714ZM128.745 26.5457H129.917C130.224 26.5457 130.451 26.4888 130.598 26.3751C130.746 26.2614 130.82 26.0908 130.82 25.8634C130.82 25.6412 130.746 25.4732 130.598 25.3595C130.451 25.2458 130.224 25.189 129.917 25.189H128.745V26.5457Z" fill="#00CED8"/>
<path d="M137.648 29.8482C137.236 29.8482 136.859 29.781 136.516 29.6466C136.178 29.5123 135.888 29.321 135.645 29.073C135.402 28.8249 135.215 28.5277 135.083 28.1814C134.956 27.8351 134.893 27.4501 134.893 27.0263C134.893 26.5973 134.956 26.2123 135.083 25.8712C135.215 25.5249 135.402 25.2303 135.645 24.9874C135.888 24.7393 136.178 24.5481 136.516 24.4137C136.859 24.2793 137.236 24.2122 137.648 24.2122C138.065 24.2122 138.443 24.2793 138.781 24.4137C139.118 24.5481 139.409 24.7367 139.652 24.9797C139.894 25.2226 140.082 25.5172 140.214 25.8634C140.346 26.2097 140.412 26.5948 140.412 27.0186C140.412 27.4475 140.346 27.8351 140.214 28.1814C140.082 28.5277 139.894 28.8249 139.652 29.073C139.409 29.321 139.118 29.5123 138.781 29.6466C138.443 29.781 138.065 29.8482 137.648 29.8482ZM137.648 28.8249C137.965 28.8249 138.232 28.7551 138.448 28.6156C138.664 28.4708 138.831 28.2641 138.947 27.9954C139.068 27.7214 139.129 27.3984 139.129 27.0263C139.129 26.649 139.071 26.326 138.955 26.0572C138.839 25.7885 138.67 25.5843 138.448 25.4448C138.226 25.3053 137.96 25.2355 137.648 25.2355C137.342 25.2355 137.078 25.3053 136.856 25.4448C136.635 25.5843 136.466 25.7885 136.35 26.0572C136.233 26.326 136.175 26.649 136.175 27.0263C136.175 27.3984 136.233 27.7214 136.35 27.9954C136.466 28.2641 136.635 28.4708 136.856 28.6156C137.078 28.7551 137.342 28.8249 137.648 28.8249Z" fill="#00CED8"/>
<path d="M143.341 29.7629V24.2974H144.481V28.0419H144.291L147.268 24.2974H148.179V29.7629H147.039V26.0107H147.221L144.243 29.7629H143.341Z" fill="#00CED8"/>
<path d="M150.601 29.7629L152.937 26.724V27.2589L150.665 24.2974H152.09L153.634 26.3828H153.238L154.774 24.2974H156.208L153.927 27.2589V26.724L156.263 29.7629H154.83L153.23 27.6H153.634L152.043 29.7629H150.601Z" fill="#00CED8"/>
<path d="M22.881 1.58826C24.9028 1.95745 27.2761 2.74857 28.9287 3.62758C30.8449 4.66483 30.8098 4.57693 29.7901 5.89546C29.2979 6.52835 28.8759 7.05576 28.8583 7.09092C28.8232 7.1085 28.1376 6.77448 27.3289 6.35255C25.8169 5.56143 23.5139 4.75273 22.4415 4.62966L21.8438 4.57693L21.8789 5.91303C21.9317 7.51285 21.5977 8.44461 20.9296 8.70832C20.1736 8.9896 19.7869 8.91928 19.2419 8.37429C18.7496 7.86446 18.732 7.81172 18.732 6.10642V4.36596L17.73 4.52418C15.0402 4.92853 11.7878 6.40529 9.46718 8.26881C8.65848 8.91928 8.00801 9.49943 8.00801 9.56975C8.00801 9.64008 8.67606 10.2378 9.50234 10.8883C10.3286 11.5388 11.1197 12.242 11.2604 12.4529C11.946 13.4374 11.2428 14.8615 10.0649 14.8615C9.43202 14.8615 8.67607 14.4044 7.02351 12.9804C6.53126 12.576 6.03901 12.2244 5.93353 12.2244C5.6874 12.2244 4.42161 14.8615 3.91178 16.4437C3.41953 17.9556 2.9097 20.7157 2.9097 21.8409V22.5968H4.7908C6.47851 22.5968 6.70706 22.632 7.07625 22.9836C7.60366 23.4758 7.62124 24.4428 7.09383 25.0053C6.74222 25.3745 6.56642 25.4097 4.89628 25.4097C3.10308 25.4097 3.0855 25.4097 3.15582 25.7965C3.52501 27.6072 3.73597 28.328 4.24581 29.6466C4.86112 31.264 4.86112 31.7211 4.26339 32.3891C3.77113 32.9341 2.68115 32.9341 2.13616 32.3891C1.67907 31.932 0.764887 29.2422 0.325377 27.0271C-0.149293 24.6186 -0.0965495 20.0652 0.430862 17.6743C1.32746 13.6308 2.94486 10.5015 5.61707 7.68865C8.76396 4.36596 12.9305 2.13325 17.2377 1.50035C18.7672 1.27181 21.2636 1.30697 22.881 1.58826ZM33.5347 9.60492C25.3071 22.4913 23.215 25.6558 22.547 26.1305C21.2988 27.0271 19.5759 27.0095 18.3453 26.0602C17.3256 25.269 16.8861 24.3549 16.9037 23.0012C16.9213 21.6123 17.4311 20.786 18.9078 19.784C19.5056 19.3796 20.6659 18.4654 21.5097 17.7271C22.3536 17.0063 25.4478 14.334 28.4013 11.7849C31.3548 9.25331 34.361 6.65141 35.0642 6.01851C35.785 5.36804 36.4003 4.87579 36.4355 4.91095C36.4707 4.94612 35.1697 7.05576 33.5347 9.60492ZM38.4924 14.0528C39.5824 16.6019 40.0219 18.7643 40.1274 22.1573C40.2329 25.5328 40.0219 27.0798 39.0901 30.0333C38.4221 32.1606 37.9474 32.7935 37.0157 32.7935C36.4882 32.7935 36.2421 32.688 35.8905 32.2485C35.6444 31.9496 35.4334 31.598 35.4334 31.4573C35.4334 31.3167 35.662 30.5959 35.9432 29.8399C36.541 28.2753 37.0157 26.5348 37.0157 25.8668V25.4097H35.2576C33.6051 25.4097 33.4468 25.3745 33.0601 24.9702C32.5151 24.4428 32.4975 23.6868 32.9897 23.0539C33.3414 22.6144 33.4117 22.5968 35.2752 22.5968H37.1915V21.753C37.1915 19.8191 36.2245 16.0745 35.2225 14.1055L34.8884 13.4374L35.8026 11.9431L36.7168 10.4312L37.2969 11.5388C37.631 12.1365 38.1584 13.2792 38.4924 14.0528Z" fill="#00CED8"/>
<path d="M56.4956 34C56.2111 34 55.9805 33.7694 55.9805 33.4849V21.8081C55.9805 21.5236 56.2111 21.293 56.4956 21.293H166.223C166.507 21.293 166.738 21.5236 166.738 21.8081V33.4849C166.738 33.7694 166.507 34 166.223 34H56.4956Z" stroke="#00CED8" stroke-width="1.0303"/>
</svg>
