<svg width="168" height="35" viewBox="0 0 168 35" fill="none" xmlns="http://www.w3.org/2000/svg">
<path d="M55.6367 15.0516V0.231239H58.9372V15.0516H55.6367Z" fill="#12161A"/>
<path d="M63.0447 15.0516V0.231239H65.7915L71.2213 9.98534H70.4974L75.9059 0.231239H78.6101V15.0516H75.6078V5.2134H76.0762L71.7324 12.8233H69.8798L65.5147 5.19238H66.0257V15.0516H63.0447Z" fill="#12161A"/>
<path d="M80.888 15.0516L87.1696 6.81106V8.26156L81.0584 0.231239H84.8912L89.0434 5.8861H87.9787L92.1097 0.231239H95.9638L89.8313 8.26156V6.81106L96.1128 15.0516H92.2587L87.9574 9.18652H89.0434L84.7634 15.0516H80.888Z" fill="#12161A"/>
<path d="M103.627 15.0516L110.526 0.231239H113.188L120.087 15.0516H116.765L114.976 10.9313L116.297 11.8353H107.417L108.737 10.9313L106.97 15.0516H103.627ZM111.825 3.69983L109.099 10.1115L108.525 9.29163H115.189L114.614 10.1115L111.868 3.69983H111.825Z" fill="#12161A"/>
<path d="M128.776 15.2828C126.646 15.2828 125.021 14.7433 123.899 13.6642C122.792 12.585 122.238 10.9804 122.238 8.85017V0.231239H125.539V8.87119C125.539 10.0764 125.816 10.9874 126.369 11.604C126.923 12.2066 127.725 12.508 128.776 12.508C129.826 12.508 130.621 12.2066 131.16 11.604C131.714 10.9874 131.991 10.0764 131.991 8.87119V0.231239H135.249V8.85017C135.249 10.9804 134.702 12.585 133.609 13.6642C132.516 14.7433 130.905 15.2828 128.776 15.2828Z" fill="#12161A"/>
<path d="M142.811 15.0516V2.92203H137.85V0.231239H151.073V2.92203H146.112V15.0516H142.811Z" fill="#12161A"/>
<path d="M159.822 15.2828C158.714 15.2828 157.699 15.1006 156.777 14.7363C155.868 14.3719 155.087 13.8534 154.434 13.1807C153.781 12.508 153.277 11.7021 152.922 10.7632C152.582 9.82418 152.411 8.7801 152.411 7.6309C152.411 6.4677 152.582 5.42362 152.922 4.49866C153.277 3.55969 153.781 2.76086 154.434 2.10218C155.087 1.42948 155.868 0.910943 156.777 0.546565C157.699 0.182188 158.714 0 159.822 0C160.943 0 161.958 0.182188 162.866 0.546565C163.775 0.910943 164.556 1.42247 165.209 2.08116C165.862 2.73984 166.366 3.53867 166.721 4.47764C167.075 5.41661 167.253 6.46069 167.253 7.60988C167.253 8.77309 167.075 9.82418 166.721 10.7632C166.366 11.7021 165.862 12.508 165.209 13.1807C164.556 13.8534 163.775 14.3719 162.866 14.7363C161.958 15.1006 160.943 15.2828 159.822 15.2828ZM159.822 12.508C160.673 12.508 161.39 12.3188 161.972 11.9404C162.554 11.548 163.001 10.9874 163.314 10.2586C163.64 9.51586 163.803 8.63995 163.803 7.6309C163.803 6.60784 163.647 5.73194 163.335 5.00318C163.023 4.27443 162.568 3.72085 161.972 3.34246C161.376 2.96407 160.659 2.77487 159.822 2.77487C158.998 2.77487 158.288 2.96407 157.692 3.34246C157.096 3.72085 156.642 4.27443 156.329 5.00318C156.017 5.73194 155.861 6.60784 155.861 7.6309C155.861 8.63995 156.017 9.51586 156.329 10.2586C156.642 10.9874 157.096 11.548 157.692 11.9404C158.288 12.3188 158.998 12.508 159.822 12.508Z" fill="#12161A"/>
<path d="M66.2832 29.7628V24.2973H68.8408C69.4374 24.2973 69.8966 24.4239 70.2187 24.6772C70.5459 24.9304 70.7096 25.2767 70.7096 25.716C70.7096 26.0416 70.6146 26.3181 70.4245 26.5455C70.2345 26.7729 69.9732 26.9254 69.6406 27.0029V26.8789C69.8993 26.9202 70.1184 27.0003 70.2978 27.1192C70.4773 27.2381 70.6146 27.3905 70.7096 27.5766C70.8099 27.7627 70.86 27.9772 70.86 28.2201C70.86 28.5405 70.7809 28.817 70.6225 29.0496C70.4694 29.2822 70.2477 29.4605 69.9573 29.5845C69.6723 29.7034 69.3292 29.7628 68.928 29.7628H66.2832ZM67.4551 28.8713H68.7617C68.8884 28.8713 69.0019 28.8609 69.1022 28.8403C69.2025 28.8196 69.2869 28.7912 69.3555 28.755C69.4294 28.7188 69.4902 28.6723 69.5377 28.6154C69.5852 28.5534 69.6195 28.4836 69.6406 28.4061C69.667 28.3286 69.6802 28.2433 69.6802 28.1503C69.6802 28.0521 69.667 27.9668 69.6406 27.8945C69.6195 27.8169 69.5852 27.7497 69.5377 27.6929C69.4902 27.636 69.4294 27.5895 69.3555 27.5534C69.2869 27.512 69.2025 27.4836 69.1022 27.4681C69.0019 27.4474 68.8884 27.4371 68.7617 27.4371H67.4551V28.8713ZM67.4551 26.5455H68.6271C68.9332 26.5455 69.1602 26.4887 69.308 26.375C69.4558 26.2613 69.5298 26.0907 69.5298 25.8633C69.5298 25.6411 69.4558 25.4731 69.308 25.3594C69.1602 25.2457 68.9332 25.1888 68.6271 25.1888H67.4551V26.5455Z" fill="#00CED8"/>
<path d="M76.4767 29.8481C75.8749 29.8481 75.3602 29.7318 74.9326 29.4992C74.505 29.2666 74.175 28.941 73.9428 28.5224C73.7158 28.0986 73.6023 27.5999 73.6023 27.0262C73.6023 26.4525 73.7158 25.9563 73.9428 25.5377C74.175 25.1191 74.505 24.7935 74.9326 24.5609C75.3602 24.3283 75.8749 24.212 76.4767 24.212C76.8462 24.212 77.1999 24.2689 77.5377 24.3826C77.8756 24.4963 78.1527 24.6513 78.3692 24.8477L77.9891 25.8013C77.7515 25.6204 77.5113 25.4886 77.2685 25.4059C77.031 25.3181 76.7802 25.2741 76.5163 25.2741C75.9884 25.2741 75.5872 25.4266 75.3127 25.7315C75.0382 26.0313 74.9009 26.4628 74.9009 27.0262C74.9009 27.5895 75.0382 28.0237 75.3127 28.3286C75.5872 28.6335 75.9884 28.786 76.5163 28.786C76.7802 28.786 77.031 28.7446 77.2685 28.662C77.5113 28.5741 77.7515 28.4397 77.9891 28.2588L78.3692 29.2124C78.1527 29.4088 77.8756 29.5638 77.5377 29.6775C77.1999 29.7912 76.8462 29.8481 76.4767 29.8481Z" fill="#00CED8"/>
<path d="M81.1534 29.7628V24.2973H84.978V25.2354H82.3253V26.5145H84.8038V27.4603H82.3253V28.8248H84.978V29.7628H81.1534Z" fill="#00CED8"/>
<path d="M91.6436 31.0807V28.817H92.2058C92.3642 28.6206 92.4962 28.3777 92.6018 28.0883C92.7073 27.7988 92.7839 27.4577 92.8314 27.0649C92.8842 26.6722 92.9106 26.2303 92.9106 25.7393V24.2973H97.0044V28.817H97.7962V31.0807H96.7193V29.7628H92.7285V31.0807H91.6436ZM93.4411 28.817H95.7691V25.2354H94.0429V25.8556C94.0429 26.3155 94.0218 26.729 93.9796 27.096C93.9373 27.4629 93.8713 27.7885 93.7816 28.0728C93.6919 28.357 93.5784 28.6051 93.4411 28.817Z" fill="#00CED8"/>
<path d="M100.659 29.9023L100.041 29.0263C100.253 28.9074 100.437 28.7679 100.596 28.6077C100.754 28.4475 100.886 28.2511 100.992 28.0185C101.097 27.7808 101.174 27.4965 101.221 27.1657C101.274 26.8298 101.3 26.4318 101.3 25.9718V24.2973H105.394V29.7628H104.159V25.2896H102.433V26.2819C102.433 26.7781 102.393 27.22 102.314 27.6076C102.235 27.9952 102.119 28.3364 101.966 28.6309C101.813 28.9255 101.625 29.1788 101.403 29.3907C101.182 29.5974 100.934 29.768 100.659 29.9023Z" fill="#00CED8"/>
<path d="M108.125 29.7628L109.027 28.1425C109.149 27.9255 109.294 27.7653 109.463 27.6619C109.632 27.5534 109.824 27.4991 110.041 27.4991H110.342L110.35 27.6309C109.938 27.6309 109.584 27.5637 109.289 27.4293C108.998 27.2949 108.777 27.1037 108.624 26.8556C108.476 26.6075 108.402 26.313 108.402 25.9718C108.402 25.4447 108.571 25.0338 108.909 24.7392C109.246 24.4446 109.727 24.2973 110.35 24.2973H112.907V29.7628H111.672V27.6464H111.15C111.044 27.6464 110.949 27.6593 110.864 27.6851C110.78 27.7058 110.703 27.7446 110.635 27.8014C110.566 27.8531 110.505 27.9255 110.453 28.0185L109.479 29.7628H108.125ZM110.564 26.7781H111.672V25.2354H110.564C110.242 25.2354 109.996 25.3 109.827 25.4292C109.663 25.5584 109.582 25.7496 109.582 26.0029C109.582 26.2613 109.663 26.4551 109.827 26.5843C109.996 26.7135 110.242 26.7781 110.564 26.7781Z" fill="#00CED8"/>
<path d="M122.897 29.8481C122.295 29.8481 121.78 29.7318 121.353 29.4992C120.925 29.2666 120.595 28.941 120.363 28.5224C120.136 28.0986 120.022 27.5999 120.022 27.0262C120.022 26.4525 120.136 25.9563 120.363 25.5377C120.595 25.1191 120.925 24.7935 121.353 24.5609C121.78 24.3283 122.295 24.212 122.897 24.212C123.266 24.212 123.62 24.2689 123.958 24.3826C124.296 24.4963 124.573 24.6513 124.789 24.8477L124.409 25.8013C124.172 25.6204 123.931 25.4886 123.689 25.4059C123.451 25.3181 123.2 25.2741 122.936 25.2741C122.408 25.2741 122.007 25.4266 121.733 25.7315C121.458 26.0313 121.321 26.4628 121.321 27.0262C121.321 27.5895 121.458 28.0237 121.733 28.3286C122.007 28.6335 122.408 28.786 122.936 28.786C123.2 28.786 123.451 28.7446 123.689 28.662C123.931 28.5741 124.172 28.4397 124.409 28.2588L124.789 29.2124C124.573 29.4088 124.296 29.5638 123.958 29.6775C123.62 29.7912 123.266 29.8481 122.897 29.8481Z" fill="#00CED8"/>
<path d="M127.574 29.7628V24.2973H130.131C130.728 24.2973 131.187 24.4239 131.509 24.6772C131.836 24.9304 132 25.2767 132 25.716C132 26.0416 131.905 26.3181 131.715 26.5455C131.525 26.7729 131.263 26.9254 130.931 27.0029V26.8789C131.19 26.9202 131.409 27.0003 131.588 27.1192C131.768 27.2381 131.905 27.3905 132 27.5766C132.1 27.7627 132.15 27.9772 132.15 28.2201C132.15 28.5405 132.071 28.817 131.913 29.0496C131.76 29.2822 131.538 29.4605 131.248 29.5845C130.963 29.7034 130.619 29.7628 130.218 29.7628H127.574ZM128.745 28.8713H130.052C130.179 28.8713 130.292 28.8609 130.392 28.8403C130.493 28.8196 130.577 28.7912 130.646 28.755C130.72 28.7188 130.78 28.6723 130.828 28.6154C130.875 28.5534 130.91 28.4836 130.931 28.4061C130.957 28.3286 130.971 28.2433 130.971 28.1503C130.971 28.0521 130.957 27.9668 130.931 27.8945C130.91 27.8169 130.875 27.7497 130.828 27.6929C130.78 27.636 130.72 27.5895 130.646 27.5534C130.577 27.512 130.493 27.4836 130.392 27.4681C130.292 27.4474 130.179 27.4371 130.052 27.4371H128.745V28.8713ZM128.745 26.5455H129.917C130.224 26.5455 130.451 26.4887 130.598 26.375C130.746 26.2613 130.82 26.0907 130.82 25.8633C130.82 25.6411 130.746 25.4731 130.598 25.3594C130.451 25.2457 130.224 25.1888 129.917 25.1888H128.745V26.5455Z" fill="#00CED8"/>
<path d="M137.648 29.8481C137.236 29.8481 136.859 29.7809 136.516 29.6465C136.178 29.5121 135.888 29.3209 135.645 29.0728C135.402 28.8248 135.215 28.5276 135.083 28.1813C134.956 27.835 134.893 27.45 134.893 27.0262C134.893 26.5972 134.956 26.2122 135.083 25.8711C135.215 25.5248 135.402 25.2302 135.645 24.9873C135.888 24.7392 136.178 24.548 136.516 24.4136C136.859 24.2792 137.236 24.212 137.648 24.212C138.065 24.212 138.443 24.2792 138.781 24.4136C139.118 24.548 139.409 24.7366 139.652 24.9795C139.894 25.2224 140.082 25.517 140.214 25.8633C140.346 26.2096 140.412 26.5946 140.412 27.0184C140.412 27.4474 140.346 27.835 140.214 28.1813C140.082 28.5276 139.894 28.8248 139.652 29.0728C139.409 29.3209 139.118 29.5121 138.781 29.6465C138.443 29.7809 138.065 29.8481 137.648 29.8481ZM137.648 28.8248C137.965 28.8248 138.232 28.755 138.448 28.6154C138.664 28.4707 138.831 28.264 138.947 27.9952C139.068 27.7213 139.129 27.3983 139.129 27.0262C139.129 26.6489 139.071 26.3259 138.955 26.0571C138.839 25.7884 138.67 25.5842 138.448 25.4447C138.226 25.3051 137.96 25.2354 137.648 25.2354C137.342 25.2354 137.078 25.3051 136.856 25.4447C136.635 25.5842 136.466 25.7884 136.35 26.0571C136.233 26.3259 136.175 26.6489 136.175 27.0262C136.175 27.3983 136.233 27.7213 136.35 27.9952C136.466 28.264 136.635 28.4707 136.856 28.6154C137.078 28.755 137.342 28.8248 137.648 28.8248Z" fill="#00CED8"/>
<path d="M143.341 29.7628V24.2973H144.481V28.0418H144.291L147.268 24.2973H148.179V29.7628H147.039V26.0106H147.221L144.243 29.7628H143.341Z" fill="#00CED8"/>
<path d="M150.601 29.7628L152.937 26.7238V27.2588L150.665 24.2973H152.09L153.634 26.3827H153.238L154.774 24.2973H156.208L153.927 27.2588V26.7238L156.263 29.7628H154.83L153.23 27.5999H153.634L152.043 29.7628H150.601Z" fill="#00CED8"/>
<path d="M22.881 1.58838C24.9028 1.95757 27.2761 2.74869 28.9287 3.62771C30.8449 4.66495 30.8098 4.57705 29.7901 5.89558C29.2979 6.52847 28.8759 7.05588 28.8583 7.09104C28.8232 7.10862 28.1376 6.7746 27.3289 6.35267C25.8169 5.56155 23.5139 4.75285 22.4415 4.62979L21.8438 4.57705L21.8789 5.91315C21.9317 7.51297 21.5977 8.44473 20.9296 8.70844C20.1736 8.98973 19.7869 8.9194 19.2419 8.37441C18.7496 7.86458 18.732 7.81184 18.732 6.10654V4.36608L17.73 4.52431C15.0402 4.92865 11.7878 6.40541 9.46718 8.26893C8.65848 8.91941 8.00801 9.49956 8.00801 9.56988C8.00801 9.6402 8.67606 10.2379 9.50234 10.8884C10.3286 11.5389 11.1197 12.2421 11.2604 12.4531C11.946 13.4376 11.2428 14.8616 10.0649 14.8616C9.43202 14.8616 8.67607 14.4045 7.02351 12.9805C6.53126 12.5761 6.03901 12.2245 5.93353 12.2245C5.6874 12.2245 4.42161 14.8616 3.91178 16.4438C3.41953 17.9557 2.9097 20.7158 2.9097 21.841V22.5969H4.7908C6.47851 22.5969 6.70706 22.6321 7.07625 22.9837C7.60366 23.476 7.62124 24.4429 7.09383 25.0055C6.74222 25.3747 6.56642 25.4098 4.89628 25.4098C3.10308 25.4098 3.0855 25.4098 3.15582 25.7966C3.52501 27.6074 3.73597 28.3282 4.24581 29.6467C4.86112 31.2641 4.86112 31.7212 4.26339 32.3892C3.77113 32.9342 2.68115 32.9342 2.13616 32.3892C1.67907 31.9321 0.764887 29.2423 0.325377 27.0272C-0.149293 24.6187 -0.0965495 20.0654 0.430862 17.6744C1.32746 13.6309 2.94486 10.5016 5.61707 7.68878C8.76396 4.36608 12.9305 2.13337 17.2377 1.50048C18.7672 1.27193 21.2636 1.30709 22.881 1.58838ZM33.5347 9.60504C25.3071 22.4915 23.215 25.6559 22.547 26.1306C21.2988 27.0272 19.5759 27.0096 18.3453 26.0603C17.3256 25.2692 16.8861 24.355 16.9037 23.0013C16.9213 21.6124 17.4311 20.7862 18.9078 19.7841C19.5056 19.3797 20.6659 18.4656 21.5097 17.7272C22.3536 17.0064 25.4478 14.3342 28.4013 11.785C31.3548 9.25343 34.361 6.65153 35.0642 6.01863C35.785 5.36816 36.4003 4.87592 36.4355 4.91108C36.4707 4.94624 35.1697 7.05588 33.5347 9.60504ZM38.4924 14.0529C39.5824 16.602 40.0219 18.7644 40.1274 22.1574C40.2329 25.5329 40.0219 27.0799 39.0901 30.0335C38.4221 32.1607 37.9474 32.7936 37.0157 32.7936C36.4882 32.7936 36.2421 32.6881 35.8905 32.2486C35.6444 31.9497 35.4334 31.5981 35.4334 31.4575C35.4334 31.3168 35.662 30.596 35.9432 29.8401C36.541 28.2754 37.0157 26.535 37.0157 25.8669V25.4098H35.2576C33.6051 25.4098 33.4468 25.3746 33.0601 24.9703C32.5151 24.4429 32.4975 23.6869 32.9897 23.054C33.3414 22.6145 33.4117 22.5969 35.2752 22.5969H37.1915V21.7531C37.1915 19.8192 36.2245 16.0746 35.2225 14.1056L34.8884 13.4376L35.8026 11.9432L36.7168 10.4313L37.2969 11.5389C37.631 12.1366 38.1584 13.2793 38.4924 14.0529Z" fill="#00CED8"/>
<path d="M56.4956 34C56.2111 34 55.9805 33.7694 55.9805 33.4849V21.8081C55.9805 21.5236 56.2111 21.293 56.4956 21.293H166.223C166.507 21.293 166.738 21.5236 166.738 21.8081V33.4849C166.738 33.7694 166.507 34 166.223 34H56.4956Z" stroke="#00CED8" stroke-width="1.0303"/>
</svg>
